<svg width="149" height="33" viewBox="0 0 149 33" fill="none" xmlns="http://www.w3.org/2000/svg">
<path d="M41.288 24C40.824 24 40.464 23.872 40.208 23.616C39.952 23.36 39.824 23.008 39.824 22.56V8.496C39.824 8.032 39.96 7.664 40.232 7.392C40.52 7.104 40.896 6.96 41.36 6.96C41.84 6.96 42.216 7.104 42.488 7.392C42.776 7.664 42.92 8.032 42.92 8.496V21.456H49.664C50.624 21.456 51.104 21.88 51.104 22.728C51.104 23.576 50.624 24 49.664 24H41.288ZM74.3319 22.152C74.4279 22.36 74.4759 22.568 74.4759 22.776C74.4759 23.144 74.3239 23.456 74.0199 23.712C73.7319 23.968 73.3959 24.096 73.0119 24.096C72.7559 24.096 72.5159 24.032 72.2919 23.904C72.0679 23.76 71.8919 23.544 71.7639 23.256L70.3239 20.04H61.8759L60.4359 23.256C60.3079 23.544 60.1319 23.76 59.9079 23.904C59.6839 24.032 59.4359 24.096 59.1639 24.096C58.7959 24.096 58.4599 23.968 58.1559 23.712C57.8519 23.456 57.6999 23.144 57.6999 22.776C57.6999 22.568 57.7479 22.36 57.8439 22.152L64.4679 7.92C64.6119 7.6 64.8279 7.36 65.1159 7.2C65.4199 7.024 65.7399 6.936 66.0759 6.936C66.4119 6.936 66.7239 7.024 67.0119 7.2C67.3159 7.36 67.5399 7.6 67.6839 7.92L74.3319 22.152ZM62.9319 17.64H69.2679L66.0999 10.512L62.9319 17.64ZM95.1573 14.856C95.5253 14.856 95.8213 14.968 96.0453 15.192C96.2693 15.4 96.3813 15.68 96.3813 16.032V21.192C96.3813 21.928 96.2853 22.448 96.0933 22.752C95.9013 23.056 95.5093 23.304 94.9173 23.496C94.2773 23.72 93.5333 23.896 92.6853 24.024C91.8373 24.152 91.0213 24.216 90.2373 24.216C88.4933 24.216 86.9813 23.872 85.7013 23.184C84.4213 22.496 83.4373 21.504 82.7493 20.208C82.0773 18.896 81.7413 17.336 81.7413 15.528C81.7413 13.752 82.0773 12.216 82.7493 10.92C83.4373 9.608 84.4053 8.608 85.6533 7.92C86.9013 7.216 88.3733 6.864 90.0693 6.864C92.3253 6.864 94.1733 7.472 95.6133 8.688C95.8053 8.864 95.9413 9.04 96.0213 9.216C96.1173 9.392 96.1653 9.6 96.1653 9.84C96.1653 10.192 96.0693 10.488 95.8773 10.728C95.6853 10.968 95.4533 11.088 95.1813 11.088C95.0053 11.088 94.8453 11.064 94.7013 11.016C94.5573 10.952 94.3893 10.856 94.1973 10.728C93.4933 10.232 92.8373 9.888 92.2293 9.696C91.6213 9.488 90.9333 9.384 90.1653 9.384C88.4213 9.384 87.1013 9.904 86.2053 10.944C85.3253 11.968 84.8853 13.496 84.8853 15.528C84.8853 19.688 86.7093 21.768 90.3573 21.768C91.4453 21.768 92.5333 21.616 93.6213 21.312V17.064H90.9093C90.5253 17.064 90.2213 16.968 89.9973 16.776C89.7893 16.584 89.6853 16.312 89.6853 15.96C89.6853 15.608 89.7893 15.336 89.9973 15.144C90.2213 14.952 90.5253 14.856 90.9093 14.856H95.1573ZM113.407 24.216C111.759 24.216 110.327 23.864 109.111 23.16C107.911 22.456 106.983 21.448 106.327 20.136C105.671 18.824 105.343 17.288 105.343 15.528C105.343 13.768 105.663 12.24 106.303 10.944C106.959 9.632 107.895 8.624 109.111 7.92C110.327 7.216 111.759 6.864 113.407 6.864C115.055 6.864 116.479 7.216 117.679 7.92C118.895 8.624 119.823 9.632 120.463 10.944C121.119 12.24 121.447 13.768 121.447 15.528C121.447 17.288 121.119 18.824 120.463 20.136C119.807 21.448 118.871 22.456 117.655 23.16C116.455 23.864 115.039 24.216 113.407 24.216ZM113.407 21.744C114.959 21.744 116.167 21.208 117.031 20.136C117.911 19.064 118.351 17.528 118.351 15.528C118.351 13.528 117.911 12 117.031 10.944C116.167 9.872 114.959 9.336 113.407 9.336C111.839 9.336 110.615 9.872 109.735 10.944C108.871 12 108.439 13.528 108.439 15.528C108.439 17.528 108.871 19.064 109.735 20.136C110.615 21.208 111.839 21.744 113.407 21.744ZM145.598 6.96C146.046 6.96 146.406 7.104 146.678 7.392C146.95 7.664 147.086 8.032 147.086 8.496V22.704C147.086 23.152 146.958 23.504 146.702 23.76C146.446 24.016 146.11 24.144 145.694 24.144C145.278 24.144 144.95 24.016 144.71 23.76C144.47 23.504 144.35 23.152 144.35 22.704V12.816L140.27 20.544C140.078 20.896 139.87 21.16 139.646 21.336C139.422 21.496 139.158 21.576 138.854 21.576C138.55 21.576 138.286 21.496 138.062 21.336C137.838 21.176 137.63 20.912 137.438 20.544L133.334 12.936V22.704C133.334 23.136 133.206 23.488 132.95 23.76C132.71 24.016 132.382 24.144 131.966 24.144C131.55 24.144 131.222 24.016 130.982 23.76C130.742 23.504 130.622 23.152 130.622 22.704V8.496C130.622 8.032 130.75 7.664 131.006 7.392C131.278 7.104 131.638 6.96 132.086 6.96C132.71 6.96 133.198 7.304 133.55 7.992L138.878 18.144L144.182 7.992C144.534 7.304 145.006 6.96 145.598 6.96Z" fill="#3E3F43"/>
<path d="M0.5 3.28577H6.28571C10.4278 3.28577 13.7857 6.64363 13.7857 10.7858V14.7858H8C3.85787 14.7858 0.5 11.4279 0.5 7.28577V3.28577Z" stroke="#DAA520"/>
<path d="M16.2143 17.2142H22C26.1421 17.2142 29.5 20.5721 29.5 24.7142V28.7142H23.7143C19.5722 28.7142 16.2143 25.3564 16.2143 21.2142V17.2142Z" stroke="#DAA520"/>
<path d="M23.7143 1.5H27.7143V7.28571C27.7143 11.4278 24.3564 14.7857 20.2143 14.7857H16.2143V9C16.2143 4.85787 19.5722 1.5 23.7143 1.5Z" stroke="#DAA520"/>
<path d="M9.78571 17.2142H13.7857V22.9999C13.7857 27.1421 10.4278 30.4999 6.28571 30.4999H2.28571V24.7142C2.28571 20.5721 5.64357 17.2142 9.78571 17.2142Z" stroke="#DAA520"/>
</svg>
