<svg width="16" height="16" viewBox="0 0 16 16" fill="none" xmlns="http://www.w3.org/2000/svg">
<path d="M7.09907 7.11906H6.66667C3.42924 7.11906 0.774487 4.62432 0.519977 1.45239H0.952381C4.18981 1.45239 6.84456 3.94713 7.09907 7.11906Z" stroke="#DAA520"/>
<path d="M15.4801 14.5476H15.0476C11.8102 14.5476 9.15547 12.0529 8.90096 8.88098H9.33336C12.5708 8.88098 15.2255 11.3757 15.4801 14.5476Z" stroke="#DAA520"/>
<path d="M8.88098 7.09907V6.66667C8.88098 3.42924 11.3757 0.774487 14.5476 0.519977V0.952381C14.5476 4.18981 12.0529 6.84456 8.88098 7.09907Z" stroke="#DAA520"/>
<path d="M1.45239 15.4801V15.0476C1.45239 11.8102 3.94713 9.15547 7.11906 8.90096V9.33336C7.11906 12.5708 4.62432 15.2255 1.45239 15.4801Z" stroke="#DAA520"/>
</svg>
